<svg width="36" height="35" viewBox="0 0 36 35" fill="none" xmlns="http://www.w3.org/2000/svg">
<path d="M5.21936 5.08878C2.61977 8.79763 1.73481 13.6617 2.06667 18.3434C2.28791 21.809 3.17288 25.3354 5.16405 28.0107C7.5424 31.2331 11.4141 32.9355 15.2306 32.9963C20.4297 33.1179 25.5736 30.1995 28.5051 25.457C31.3812 20.7146 31.8237 14.2697 29.556 9.16244C25.2971 -0.261686 11.4694 -3.72733 5.21936 5.08878Z" fill="#FFA843"/>
<path d="M18.3008 1.25126C11.8432 0.0473599 4.96215 4.1825 2.42145 10.045C-0.383898 16.5356 0.939382 25.8527 6.60302 30.5113C12.5313 35.3269 22.5882 35.0128 28.5165 30.4589C34.1272 26.1668 36.3503 18.891 34.1802 12.1911C31.7983 4.96765 23.8056 -0.580762 16.0248 1.40829C15.7072 1.46063 15.813 1.93173 16.0777 1.93173C24.335 2.03641 32.0629 6.22389 33.545 14.8606C34.9741 23.2879 28.6753 31.3488 20.2063 32.3956C15.6013 32.9714 9.77889 31.9769 6.49715 28.4699C3.63887 25.3816 2.36852 20.9324 2.42145 16.8496C2.47439 12.7668 3.90353 8.63169 6.97353 5.7528C10.1494 2.82157 14.0663 1.87938 18.3008 1.67001C18.5125 1.61766 18.5655 1.25126 18.3008 1.25126Z" fill="black" stroke="black"/>
<path d="M15.1074 23.522C15.1453 23.0756 15.4395 22.7232 15.99 22.465C16.5418 22.1908 17.1911 22.0854 17.9377 22.1489C18.523 22.1987 18.9877 22.3507 19.332 22.6047C19.6964 22.8606 19.8637 23.1638 19.8339 23.5146C19.8135 23.7537 19.7239 23.9709 19.565 24.1661C19.4061 24.3614 19.1887 24.5275 18.9128 24.6646C18.6584 24.7875 18.3557 24.8822 18.0045 24.9487C17.6734 25.0168 17.3263 25.0355 16.9631 25.0046C16.3778 24.9548 15.9138 24.7949 15.5709 24.5249C15.228 24.2548 15.0735 23.9205 15.1074 23.522ZM16.1683 17.5022C16.1913 17.2312 16.24 16.8981 16.3142 16.503C16.3885 16.1079 16.5025 15.6037 16.6563 14.9906C16.7252 14.6592 16.792 14.3518 16.8567 14.0682C16.9215 13.7847 16.9863 13.5012 17.0511 13.2176C17.1158 12.9341 17.1712 12.6417 17.2171 12.3406C17.2833 12.0411 17.3521 11.7097 17.4237 11.3465C17.5156 10.7441 17.5858 10.2764 17.6345 9.9433C17.7033 9.61194 17.7452 9.35858 17.7601 9.18321C17.7669 9.1035 17.7744 9.01582 17.7825 8.92016C17.7906 8.82451 17.79 8.71205 17.7807 8.5828L17.8011 8.34366C17.82 8.12047 17.956 7.9554 18.2091 7.84846C18.4836 7.7273 18.853 7.68646 19.3171 7.72594C19.862 7.77229 20.3059 7.93048 20.6488 8.20052C21.0132 8.45633 21.1812 8.75163 21.1527 9.08642C21.1459 9.16613 21.1284 9.25296 21.1 9.3469C21.0717 9.44084 21.0077 9.59597 20.908 9.8123C20.8339 9.96657 20.7443 10.1838 20.6392 10.4639C20.5542 10.7457 20.4564 11.0585 20.3459 11.4024C20.2353 11.7462 20.1241 12.0981 20.0122 12.4579C19.9218 12.8035 19.8335 13.1251 19.7472 13.4229C19.565 14.13 19.4058 14.8069 19.2695 15.4537C19.1547 16.0863 19.0777 16.6337 19.0383 17.096C19.0031 17.5105 19.0122 17.8806 19.0658 18.2064C19.141 18.5178 19.2672 18.8257 19.4446 19.1298C19.532 19.2978 19.5722 19.4217 19.5655 19.5014C19.5573 19.597 19.4987 19.6884 19.3897 19.7755C19.282 19.8466 19.1441 19.9151 18.9758 19.9811C18.8076 20.0471 18.6206 20.0954 18.4147 20.1261C18.2088 20.1567 18.0151 20.1643 17.8335 20.1489C16.5823 20.0425 16.0272 19.1602 16.1683 17.5022Z" fill="black"/>
</svg>
