<svg width="90" height="48" viewBox="0 0 90 48" fill="none" xmlns="http://www.w3.org/2000/svg">
<path d="M89.4254 2.32899V2.18923C89.9024 1.49044 89.6639 0.232612 88.5905 0.232612C70.3426 -0.605939 71.4112 1.07116 53.1633 1.35068C43.9797 1.49044 34.7962 1.6302 25.7319 1.76996C17.741 1.90971 9.39228 1.21092 1.52065 2.32899C1.40139 2.18923 1.16285 2.18923 1.04359 2.46875C0.805053 2.46875 0.566519 2.46875 0.447252 2.60851C-0.149084 2.74827 -0.149084 4.00609 0.447252 4.00609C0.566519 4.00609 0.685787 4.00609 0.805054 4.00609C-0.506884 17.7024 -0.149084 32.7964 1.52065 46.3529C1.63992 47.0517 2.11699 47.1915 2.59406 47.1915C2.71333 47.471 2.83259 47.7505 3.1904 47.7505C20.9612 47.8903 38.8512 48.03 56.622 47.8903C65.3285 47.8903 74.035 47.7505 82.7415 47.7505C90.971 47.7505 80.2418 48.5891 88.4712 47.1915C88.9483 47.0517 89.1868 46.4927 89.0676 46.0734C89.0676 45.9337 89.0676 45.9337 89.1868 45.7939C89.4254 31.259 90.7373 16.4446 89.4254 2.32899ZM82.6223 44.8156C73.9158 44.9553 65.2093 44.9553 56.5028 45.0951C38.8513 45.3746 21.0805 45.6541 3.42893 46.0734V45.9337C3.07113 32.0976 2.59406 17.9819 1.75919 4.00609C9.63082 5.26392 17.8602 4.42537 25.7319 4.42537C34.9154 4.42537 44.099 4.28561 53.1633 4.14585C71.1726 3.86633 70.1041 4.42537 88.1134 2.74827C86.3244 16.4446 86.9208 30.9795 86.8015 44.8156C79.0491 43.8373 90.3746 44.6758 82.6223 44.8156Z" fill="black"/>
</svg>
