<svg width="90" height="47" viewBox="0 0 90 47" fill="none" xmlns="http://www.w3.org/2000/svg">
<path d="M87.5027 0.693809C88.1545 16.0338 78.2464 27.5066 62.7324 28.5379C55.6924 28.9246 48.5221 28.6668 41.4821 28.5379C35.3547 28.409 28.4451 26.991 22.3177 27.8934C23.7518 26.4754 25.8377 25.0574 26.7503 23.8972C28.7058 21.7058 30.4007 19.3854 31.9651 16.9362C32.6169 15.9049 31.4436 14.358 30.2703 14.7448C20.1014 18.4831 10.3237 22.4792 0.676298 27.5066C-0.627402 28.1512 0.154818 29.9559 1.32815 29.9559C1.71926 30.2137 2.24074 30.3426 2.63185 30.6004C9.54146 37.4325 19.5799 41.0419 27.4021 46.7139C28.5755 47.6162 29.8792 46.1983 29.6184 45.0381C29.2273 42.331 27.7933 40.5263 26.0984 38.3349C25.0555 36.9169 21.7962 33.6942 20.8836 31.3739C28.4451 34.0809 38.3532 33.1786 46.1754 33.3075C55.1709 33.4364 65.4702 34.2098 73.9442 30.7293C85.5471 25.9597 92.8479 12.5533 88.9368 0.564903C88.676 -0.208546 87.5027 -0.208546 87.5027 0.693809ZM19.4496 26.991C19.3192 27.1199 19.1888 27.2488 18.9281 27.3777C18.9281 27.2488 18.7977 27.1199 18.6674 26.991C18.9281 26.991 19.1888 26.991 19.4496 26.991ZM11.2363 25.3152C11.6274 25.1863 12.0185 24.9285 12.54 24.7996C12.54 25.0574 12.6703 25.3152 12.9311 25.3152C13.0614 25.3152 13.1918 25.4441 13.3222 25.4441C12.54 25.4441 11.8881 25.3152 11.2363 25.3152ZM20.8836 25.1863C19.8407 24.7996 18.537 24.7996 17.3637 24.7996C16.1903 24.6707 15.017 24.4128 13.7133 24.155C18.0155 22.2214 22.3177 20.5456 26.7503 18.9987C26.2288 19.7722 25.577 20.5456 25.0555 21.1902C24.9251 20.9323 24.534 20.8034 24.2733 20.9323C24.2733 20.8034 24.1429 20.8034 24.1429 20.8034C23.6214 20.8034 23.2303 21.0612 22.8392 21.1902C22.8392 21.1902 22.8392 21.1902 22.7088 21.1902C22.1873 20.6745 21.1444 21.3191 21.6659 21.9636C21.7962 22.0925 21.7962 22.2214 21.9266 22.2214C21.014 22.0925 19.9711 22.2214 19.1888 22.2214C18.9281 22.2214 18.7977 22.3503 18.6674 22.4792C18.4066 22.866 18.4066 23.5105 18.9281 23.6394C19.4496 23.7683 20.1014 23.8972 20.6229 24.0261C21.2748 24.155 21.6659 24.2839 22.1873 23.8972C22.3177 23.8972 22.4481 24.0261 22.5785 24.0261C22.1873 24.4128 21.9266 24.7996 21.5355 25.0574C21.4051 25.1863 21.4051 25.1863 21.2748 25.3152C21.1444 25.3152 21.014 25.3152 20.8836 25.1863ZM11.7577 27.5066C10.3237 27.3777 8.75924 27.2488 7.32517 27.2488C8.36813 26.7332 9.41109 26.2176 10.3237 25.8308C10.1933 26.2176 10.3237 26.7332 10.7148 26.8621C12.1489 27.1199 13.4526 27.5066 14.7563 27.8934C15.7992 28.2801 16.8422 28.6668 18.0155 28.5379C18.0155 28.6668 17.8851 28.6668 17.8851 28.7957C17.8851 28.7957 17.7548 28.7957 17.7548 28.6668C17.6244 28.5379 17.3637 28.5379 17.2333 28.6668C15.4081 28.409 13.5829 27.6355 11.7577 27.5066ZM24.1429 40.0107C24.4036 40.3974 24.7947 40.7841 25.0555 41.2998C24.4036 40.913 23.7518 40.3974 23.0999 40.0107C23.3607 40.0107 23.7518 40.0107 24.1429 40.0107ZM23.3607 38.9794C23.2303 38.9794 23.0999 38.8505 22.9696 38.8505C23.0999 38.8505 23.0999 38.7216 23.0999 38.7216C23.2303 38.8505 23.2303 38.8505 23.3607 38.9794ZM21.5355 36.788L21.6659 36.9169C21.5355 36.9169 21.4051 36.788 21.2748 36.788C21.4051 36.788 21.4051 36.788 21.5355 36.788ZM16.8422 35.8856C16.8422 36.0145 16.9725 36.0145 16.9725 36.0145C18.0155 36.6591 19.0585 37.3036 20.2318 37.8193C20.8836 38.206 21.4051 38.5927 22.057 38.7216C21.9266 38.8505 21.7962 38.9794 21.7962 39.1083C19.5799 37.6903 17.2333 36.4013 14.8866 35.1122C15.4081 35.37 16.06 35.6278 16.8422 35.8856ZM4.97851 29.3113C7.1948 30.2137 9.67183 30.7293 12.0185 31.5028C14.3651 32.2762 16.5814 33.1786 19.0585 33.6942C19.0585 33.6942 19.0585 33.6942 19.1888 33.6942C19.3192 33.8231 19.4496 33.952 19.5799 34.0809C19.4496 34.2098 19.5799 34.3387 19.5799 34.4677C14.4955 32.0184 8.36813 31.3739 3.02296 29.1824C3.67481 28.7957 4.45703 28.409 5.10888 28.1512C5.36962 28.1512 5.49999 28.2801 5.76073 28.2801C5.49999 28.2801 5.23925 28.2801 4.97851 28.2801C4.45703 28.2801 4.32666 29.0535 4.97851 29.3113Z" fill="black"/>
</svg>
