<svg width="63" height="48" viewBox="0 0 63 48" fill="none" xmlns="http://www.w3.org/2000/svg">
<path d="M62.6696 2.32899V2.18923C62.9439 1.49044 62.8067 0.232612 62.1895 0.232612C51.696 -0.605939 41.0653 1.07116 30.5718 1.35068C25.2907 1.49044 20.0097 1.6302 14.7972 1.76996C10.202 1.90971 5.40107 1.21092 0.874459 2.32899C0.805874 2.18923 0.668704 2.18923 0.600119 2.46875C0.462949 2.46875 0.325779 2.46875 0.257194 2.60851C-0.0857313 2.74827 -0.0857313 4.00609 0.257194 4.00609C0.325779 4.00609 0.394365 4.00609 0.46295 4.00609C-0.291486 17.7024 -0.0857315 32.7964 0.874459 46.3529C0.943044 47.0517 1.21738 47.1915 1.49172 47.1915C1.56031 47.471 1.62889 47.7505 1.83465 47.7505C12.0538 47.8903 22.3416 48.03 32.5607 47.8903C37.5674 47.8903 42.5742 47.7505 47.5809 47.7505C52.3132 47.7505 57.3885 48.5891 62.1209 47.1915C62.3952 47.0517 62.5324 46.4927 62.4638 46.0734C62.4638 45.9337 62.4638 45.9337 62.5324 45.7939C62.6696 31.259 63.424 16.4446 62.6696 2.32899ZM47.5123 44.8156C42.5056 44.9553 37.4989 44.9553 32.4922 45.0951C22.3416 45.3746 14.1547 45.6541 4.00408 46.0734V45.9337C3.79832 32.0976 2.50785 17.9819 2.02776 4.00609C6.55437 5.26392 10.2706 4.42537 14.7972 4.42537C20.0783 4.42537 25.3593 4.28561 30.5718 4.14585C40.9281 3.86633 50.5427 4.42537 60.899 2.74827C59.8702 16.4446 59.197 30.9795 59.1284 44.8156C54.6704 43.8373 51.9703 44.6758 47.5123 44.8156Z" fill="black"/>
</svg>
