<svg width="84" height="48" viewBox="0 0 84 48" fill="none" xmlns="http://www.w3.org/2000/svg">
<path d="M83.336 2.32899V2.18923C83.8873 1.49044 83.6116 0.232612 82.3712 0.232612C61.2848 -0.605939 62.5196 1.07116 41.4331 1.35068C30.821 1.49044 40.2089 1.6302 29.7346 1.76996C20.5007 1.90971 10.8533 1.21092 1.7572 2.32899C1.61938 2.18923 1.34374 2.18923 1.20592 2.46875C0.930283 2.46875 0.654644 2.46875 0.516824 2.60851C-0.172275 2.74827 -0.172275 4.00609 0.516824 4.00609C0.654644 4.00609 0.792465 4.00609 0.930285 4.00609C-0.585732 17.7024 -0.172275 32.7964 1.7572 46.3529C1.89502 47.0517 2.4463 47.1915 2.99758 47.1915C3.1354 47.471 3.27322 47.7505 3.68668 47.7505C24.2218 47.8903 24.8948 48.03 45.4299 47.8903C55.4908 47.8903 65.5516 47.7505 75.6124 47.7505C85.122 47.7505 72.7239 48.5891 82.2334 47.1915C82.7847 47.0517 83.0603 46.4927 82.9225 46.0734C82.9225 45.9337 82.9225 45.9337 83.0603 45.7939C83.336 31.259 84.852 16.4446 83.336 2.32899ZM75.4746 44.8156C65.4138 44.9553 55.3529 44.9553 45.2921 45.0951C24.8948 45.3746 24.3596 45.6541 3.96232 46.0734V45.9337C3.54886 32.0976 2.99758 17.9819 2.03284 4.00609C11.1289 5.26392 20.6385 4.42537 29.7346 4.42537C40.3467 4.42537 30.9588 4.28561 41.4331 4.14585C62.2439 3.86633 61.0092 4.42537 81.82 2.74827C79.7527 16.4446 80.4418 30.9795 80.3039 44.8156C71.3457 43.8373 84.4329 44.6758 75.4746 44.8156Z" fill="black"/>
</svg>
