<svg width="90" height="47" viewBox="0 0 90 47" fill="none" xmlns="http://www.w3.org/2000/svg">
<path d="M2.4973 0.693809C1.84545 16.0338 11.7536 27.5066 27.2676 28.5379C34.3076 28.9246 41.4779 28.6668 48.5179 28.5379C54.6453 28.409 61.5549 26.991 67.6823 27.8934C66.2482 26.4754 64.1623 25.0574 63.2497 23.8972C61.2942 21.7058 59.5993 19.3854 58.0349 16.9362C57.3831 15.9049 58.5564 14.358 59.7297 14.7448C69.8986 18.4831 79.6763 22.4792 89.3237 27.5066C90.6274 28.1512 89.8452 29.9559 88.6719 29.9559C88.2807 30.2137 87.7593 30.3426 87.3682 30.6004C80.4585 37.4325 70.4201 41.0419 62.5979 46.7139C61.4245 47.6162 60.1208 46.1983 60.3816 45.0381C60.7727 42.331 62.2067 40.5263 63.9016 38.3349C64.9445 36.9169 68.2038 33.6942 69.1164 31.3739C61.5549 34.0809 51.6468 33.1786 43.8246 33.3075C34.829 33.4364 24.5298 34.2098 16.0558 30.7293C4.45285 25.9597 -2.84787 12.5533 1.06323 0.564903C1.32398 -0.208542 2.4973 -0.208546 2.4973 0.693809ZM70.5504 26.991C70.6808 27.1199 70.8112 27.2488 71.0719 27.3777C71.0719 27.2488 71.2023 27.1199 71.3326 26.991C71.0719 26.991 70.8112 26.991 70.5504 26.991ZM78.7637 25.3152C78.3726 25.1863 77.9815 24.9285 77.46 24.7996C77.46 25.0574 77.3297 25.3152 77.0689 25.3152C76.9386 25.3152 76.8082 25.4441 76.6778 25.4441C77.46 25.4441 78.1119 25.3152 78.7637 25.3152ZM69.1164 25.1863C70.1593 24.7996 71.463 24.7996 72.6363 24.7996C73.8097 24.6707 74.983 24.4128 76.2867 24.155C71.9845 22.2214 67.6823 20.5456 63.2497 18.9987C63.7712 19.7722 64.423 20.5456 64.9445 21.1902C65.0749 20.9323 65.466 20.8034 65.7267 20.9323C65.7267 20.8034 65.8571 20.8034 65.8571 20.8034C66.3786 20.8034 66.7697 21.0612 67.1608 21.1902C67.1608 21.1902 67.1608 21.1902 67.2912 21.1902C67.8127 20.6745 68.8556 21.3191 68.3341 21.9636C68.2038 22.0925 68.2038 22.2214 68.0734 22.2214C68.986 22.0925 70.0289 22.2214 70.8112 22.2214C71.0719 22.2214 71.2023 22.3503 71.3326 22.4792C71.5934 22.866 71.5934 23.5105 71.0719 23.6394C70.5504 23.7683 69.8986 23.8972 69.3771 24.0261C68.7252 24.155 68.3341 24.2839 67.8127 23.8972C67.6823 23.8972 67.5519 24.0261 67.4215 24.0261C67.8127 24.4128 68.0734 24.7996 68.4645 25.0574C68.5949 25.1863 68.5949 25.1863 68.7252 25.3152C68.8556 25.3152 68.986 25.3152 69.1164 25.1863ZM78.2423 27.5066C79.6763 27.3777 81.2408 27.2488 82.6748 27.2488C81.6319 26.7332 80.5889 26.2176 79.6763 25.8308C79.8067 26.2176 79.6763 26.7332 79.2852 26.8621C77.8511 27.1199 76.5474 27.5066 75.2437 27.8934C74.2008 28.2801 73.1578 28.6668 71.9845 28.5379C71.9845 28.6668 72.1149 28.6668 72.1149 28.7957C72.1149 28.7957 72.2452 28.7957 72.2452 28.6668C72.3756 28.5379 72.6363 28.5379 72.7667 28.6668C74.5919 28.409 76.4171 27.6355 78.2423 27.5066ZM65.8571 40.0107C65.5964 40.3974 65.2053 40.7841 64.9445 41.2998C65.5964 40.913 66.2482 40.3974 66.9001 40.0107C66.6393 40.0107 66.2482 40.0107 65.8571 40.0107ZM66.6393 38.9794C66.7697 38.9794 66.9001 38.8505 67.0304 38.8505C66.9001 38.8505 66.9001 38.7216 66.9001 38.7216C66.7697 38.8505 66.7697 38.8505 66.6393 38.9794ZM68.4645 36.788L68.3341 36.9169C68.4645 36.9169 68.5949 36.788 68.7252 36.788C68.5949 36.788 68.5949 36.788 68.4645 36.788ZM73.1578 35.8856C73.1578 36.0145 73.0275 36.0145 73.0275 36.0145C71.9845 36.6591 70.9415 37.3036 69.7682 37.8193C69.1164 38.206 68.5949 38.5927 67.943 38.7216C68.0734 38.8505 68.2038 38.9794 68.2038 39.1083C70.4201 37.6903 72.7667 36.4013 75.1134 35.1122C74.5919 35.37 73.94 35.6278 73.1578 35.8856ZM85.0215 29.3113C82.8052 30.2137 80.3282 30.7293 77.9815 31.5028C75.6349 32.2762 73.4186 33.1786 70.9415 33.6942C70.9415 33.6942 70.9415 33.6942 70.8112 33.6942C70.6808 33.8231 70.5504 33.952 70.4201 34.0809C70.5504 34.2098 70.4201 34.3387 70.4201 34.4677C75.5045 32.0184 81.6319 31.3739 86.977 29.1824C86.3252 28.7957 85.543 28.409 84.8911 28.1512C84.6304 28.1512 84.5 28.2801 84.2393 28.2801C84.5 28.2801 84.7608 28.2801 85.0215 28.2801C85.543 28.2801 85.6733 29.0535 85.0215 29.3113Z" fill="black"/>
</svg>
