<svg width="307" height="109" viewBox="0 0 307 109" fill="none" xmlns="http://www.w3.org/2000/svg">
<path d="M304.617 105.408L304.09 8.32663L1.86539 4.74561L1.74011 106.749L304.617 105.408Z" fill="white"/>
<path d="M9.26807 3.32453V40.4113L297.523 41L304.268 2L9.26807 3.32453Z" fill="#FED45C"/>
<path d="M305.943 2.32899V2.18923C306.213 1.49044 306.078 0.232612 305.47 0.232612C295.143 -0.605939 41.6815 1.07116 31.3546 1.35068C26.1574 1.49044 20.9601 1.6302 15.8304 1.76996C11.3082 1.90971 6.5834 1.21092 2.12864 2.32899C2.06115 2.18923 1.92616 2.18923 1.85866 2.46875C1.72367 2.46875 1.58867 2.46875 1.52118 2.60851C1.1837 2.74827 1.1837 4.00609 1.52118 4.00609C1.58867 4.00609 1.65617 4.00609 1.72367 4.00609C0.981208 17.7024 1.1837 92.7964 2.12864 106.353C2.19614 107.052 2.46613 107.191 2.73611 107.191C2.80361 107.471 2.87111 107.751 3.07359 107.751C13.1306 107.89 23.255 108.03 33.312 107.89C38.2392 107.89 286.166 107.751 291.094 107.751C295.751 107.751 300.746 108.589 305.403 107.191C305.673 107.052 305.808 106.493 305.74 106.073C305.74 105.934 305.74 105.934 305.808 105.794C305.943 91.259 306.685 16.4446 305.943 2.32899ZM291.026 104.816C286.099 104.955 38.1717 104.955 33.2445 105.095C23.255 105.375 15.198 105.654 5.20858 106.073V105.934C5.00609 92.0976 3.73611 17.9819 3.26364 4.00609C7.7184 5.26392 11.3756 4.42537 15.8304 4.42537C21.0276 4.42537 26.2248 4.28561 31.3546 4.14585C41.5465 3.86633 294.008 4.42537 304.2 2.74827C303.188 16.4446 302.525 90.9795 302.458 104.816C298.071 103.837 295.413 104.676 291.026 104.816Z" fill="black"/>
</svg>
