<svg width="329" height="48" viewBox="0 0 329 48" fill="none" xmlns="http://www.w3.org/2000/svg">
<path d="M328.29 2.32899V2.18923C328.879 1.49044 328.585 0.232612 327.258 0.232612C304.7 -0.605939 88.2767 1.07116 65.7191 1.35068C54.3667 1.49044 43.0142 1.6302 31.8091 1.76996C21.931 1.90971 11.6105 1.21092 1.8798 2.32899C1.73236 2.18923 1.43749 2.18923 1.29006 2.46875C0.995186 2.46875 0.700316 2.46875 0.552881 2.60851C-0.184294 2.74827 -0.184294 4.00609 0.552881 4.00609C0.700316 4.00609 0.847753 4.00609 0.995188 4.00609C-0.626597 17.7024 -0.184294 32.7964 1.8798 46.3529C2.02723 47.0517 2.61697 47.1915 3.20671 47.1915C3.35415 47.471 3.50158 47.7505 3.94389 47.7505C25.9117 47.8903 48.0269 48.03 69.9948 47.8903C80.7575 47.8903 91.5203 47.7505 102.283 47.7505C112.456 47.7505 316.937 48.5891 327.11 47.1915C327.7 47.0517 327.995 46.4927 327.847 46.0734C327.847 45.9337 327.847 45.9337 327.995 45.7939C328.29 31.259 329.911 16.4446 328.29 2.32899ZM102.136 44.8156C91.3728 44.9553 80.6101 44.9553 69.8473 45.0951C48.027 45.3746 26.0591 45.6541 4.23876 46.0734V45.9337C3.79645 32.0976 3.20671 17.9819 2.17467 4.00609C11.9054 5.26392 22.0784 4.42537 31.8091 4.42537C43.1616 4.42537 54.5141 4.28561 65.7191 4.14585C87.9818 3.86633 304.405 4.42537 326.668 2.74827C324.456 16.4446 325.194 30.9795 325.046 44.8156C315.463 43.8373 111.719 44.6758 102.136 44.8156Z" fill="black"/>
</svg>
