<svg width="251" height="48" viewBox="0 0 251 48" fill="none" xmlns="http://www.w3.org/2000/svg">
<path d="M250.103 2.32899V2.18923C250.848 1.49044 250.475 0.232612 248.8 0.232612C220.318 -0.605939 111.463 1.07116 82.9805 1.35068C68.6463 1.49044 54.312 1.6302 40.1639 1.76996C27.6912 1.90971 14.66 1.21092 2.37353 2.32899C2.18737 2.18923 1.81505 2.18923 1.62889 2.46875C1.25658 2.46875 0.884257 2.46875 0.698098 2.60851C-0.232699 2.74827 -0.232699 4.00609 0.698098 4.00609C0.884257 4.00609 1.07042 4.00609 1.25658 4.00609C-0.791175 17.7024 -0.232699 32.7964 2.37353 46.3529C2.55969 47.0517 3.30433 47.1915 4.04897 47.1915C4.23513 47.471 4.42129 47.7505 4.97977 47.7505C32.7175 47.8903 60.6414 48.03 88.3791 47.8903C101.969 47.8903 195.558 47.7505 209.148 47.7505C221.993 47.7505 235.769 48.5891 248.614 47.1915C249.358 47.0517 249.731 46.4927 249.545 46.0734C249.545 45.9337 249.545 45.9337 249.731 45.7939C250.103 31.259 252.151 16.4446 250.103 2.32899ZM208.962 44.8156C195.372 44.9553 101.783 44.9553 88.193 45.0951C60.6414 45.3746 32.9037 45.6541 5.35209 46.0734V45.9337C4.79361 32.0976 4.04897 17.9819 2.74585 4.00609C15.0324 5.26392 27.8774 4.42537 40.1639 4.42537C54.4981 4.42537 68.8324 4.28561 82.9805 4.14585C111.091 3.86633 219.945 4.42537 248.055 2.74827C245.263 16.4446 246.194 30.9795 246.008 44.8156C233.907 43.8373 221.062 44.6758 208.962 44.8156Z" fill="black"/>
</svg>
