<svg width="218" height="48" viewBox="0 0 218 48" fill="none" xmlns="http://www.w3.org/2000/svg">
<path d="M217.29 2.32899V2.18923C217.879 1.49044 217.585 0.232612 216.258 0.232612C193.7 -0.605939 93.2767 1.07116 70.7191 1.35068C59.3667 1.49044 48.0142 1.6302 36.8091 1.76996C26.931 1.90971 11.6105 1.21092 1.8798 2.32899C1.73236 2.18923 1.43749 2.18923 1.29006 2.46875C0.995186 2.46875 0.700316 2.46875 0.552881 2.60851C-0.184294 2.74827 -0.184294 4.00609 0.552881 4.00609C0.700316 4.00609 0.847753 4.00609 0.995188 4.00609C-0.626597 17.7024 -0.184294 32.7964 1.8798 46.3529C2.02723 47.0517 2.61697 47.1915 3.20671 47.1915C3.35415 47.471 3.50158 47.7505 3.94389 47.7505C25.9117 47.8903 53.0269 48.03 74.9948 47.8903C85.7575 47.8903 96.5203 47.7505 107.283 47.7505C117.456 47.7505 205.937 48.5891 216.11 47.1915C216.7 47.0517 216.995 46.4927 216.847 46.0734C216.847 45.9337 216.847 45.9337 216.995 45.7939C217.29 31.259 218.911 16.4446 217.29 2.32899ZM107.136 44.8156C96.3728 44.9553 85.6101 44.9553 74.8473 45.0951C53.027 45.3746 26.0591 45.6541 4.23876 46.0734V45.9337C3.79645 32.0976 3.20671 17.9819 2.17467 4.00609C11.9054 5.26392 27.0784 4.42537 36.8091 4.42537C48.1616 4.42537 59.5141 4.28561 70.7191 4.14585C92.9818 3.86633 193.405 4.42537 215.668 2.74827C213.456 16.4446 214.194 30.9795 214.046 44.8156C204.463 43.8373 116.719 44.6758 107.136 44.8156Z" fill="black"/>
</svg>
