<svg width="151" height="48" viewBox="0 0 151 48" fill="none" xmlns="http://www.w3.org/2000/svg">
<path d="M150.425 2.32899V2.18923C150.902 1.49044 150.664 0.232612 149.591 0.232612C131.343 -0.605939 136.411 1.07116 118.163 1.35068C108.98 1.49044 34.7962 1.6302 25.7319 1.76996C17.741 1.90971 9.39228 1.21092 1.52065 2.32899C1.40139 2.18923 1.16285 2.18923 1.04359 2.46875C0.805053 2.46875 0.566519 2.46875 0.447252 2.60851C-0.149084 2.74827 -0.149084 4.00609 0.447252 4.00609C0.566519 4.00609 0.685787 4.00609 0.805054 4.00609C-0.506884 17.7024 -0.149084 32.7964 1.52065 46.3529C1.63992 47.0517 2.11699 47.1915 2.59406 47.1915C2.71333 47.471 2.8326 47.7505 3.1904 47.7505C20.9612 47.8903 103.851 48.03 121.622 47.8903C130.329 47.8903 135.035 47.7505 143.742 47.7505C151.971 47.7505 141.242 48.5891 149.471 47.1915C149.948 47.0517 150.187 46.4927 150.068 46.0734C150.068 45.9337 150.068 45.9337 150.187 45.7939C150.425 31.259 151.737 16.4446 150.425 2.32899ZM143.622 44.8156C134.916 44.9553 130.209 44.9553 121.503 45.0951C103.851 45.3746 21.0805 45.6541 3.42893 46.0734V45.9337C3.07113 32.0976 2.59406 17.9819 1.75919 4.00609C9.63082 5.26392 17.8602 4.42537 25.7319 4.42537C34.9154 4.42537 109.099 4.28561 118.163 4.14585C136.173 3.86633 131.104 4.42537 149.113 2.74827C147.324 16.4446 147.921 30.9795 147.801 44.8156C140.049 43.8373 151.375 44.6758 143.622 44.8156Z" fill="black"/>
</svg>
