<svg width="122" height="48" viewBox="0 0 122 48" fill="none" xmlns="http://www.w3.org/2000/svg">
<path d="M121.675 2.32899V2.18923C121.945 1.49044 121.81 0.232612 121.202 0.232612C110.875 -0.605939 40.4134 1.07116 30.0865 1.35068C24.8893 1.49044 19.6921 1.6302 14.5623 1.76996C10.0401 1.90971 5.31534 1.21092 0.860578 2.32899C0.793082 2.18923 0.658089 2.18923 0.590593 2.46875C0.4556 2.46875 0.320608 2.46875 0.253111 2.60851C-0.0843705 2.74827 -0.0843705 4.00609 0.253111 4.00609C0.320608 4.00609 0.388105 4.00609 0.455601 4.00609C-0.286859 17.7024 -0.0843711 32.7964 0.860578 46.3529C0.928074 47.0517 1.19806 47.1915 1.46805 47.1915C1.53554 47.471 1.60304 47.7505 1.80553 47.7505C11.8625 47.8903 21.9869 48.03 32.0439 47.8903C36.9711 47.8903 101.898 47.7505 106.826 47.7505C111.483 47.7505 116.478 48.5891 121.135 47.1915C121.405 47.0517 121.54 46.4927 121.472 46.0734C121.472 45.9337 121.472 45.9337 121.54 45.7939C121.675 31.259 122.417 16.4446 121.675 2.32899ZM106.758 44.8156C101.831 44.9553 36.9036 44.9553 31.9764 45.0951C21.9869 45.3746 13.93 45.6541 3.94052 46.0734V45.9337C3.73803 32.0976 2.46805 17.9819 1.99557 4.00609C6.45033 5.26392 10.1076 4.42537 14.5623 4.42537C19.7596 4.42537 24.9568 4.28561 30.0865 4.14585C40.2785 3.86633 109.74 4.42537 119.932 2.74827C118.92 16.4446 118.257 30.9795 118.19 44.8156C113.803 43.8373 111.145 44.6758 106.758 44.8156Z" fill="black"/>
</svg>
