<svg width="33" height="23" viewBox="0 0 33 23" fill="none" xmlns="http://www.w3.org/2000/svg">
<path d="M5.91846 9.15522C4.71456 9.33701 4.52322 12.6928 5.71115 12.6254C14.0787 12.2776 22.4061 11.2244 30.6819 12.0302C31.4299 12.1347 32.0054 9.99893 31.0014 9.74208C23.0534 7.58239 14.2578 7.52048 5.91846 9.15522Z" fill="#231F20"/>
<path d="M10.7047 1.19249C7.86513 2.66215 4.02193 5.85787 2.17486 10.1488C1.85902 10.9212 1.69925 12.0652 2.17934 12.5988C3.39552 13.8184 4.62768 14.9236 5.84386 16.1432C7.07603 17.2483 8.59616 18.2771 9.69641 19.8304C10.0446 20.8121 11.3403 19.4768 10.8041 18.3522C10.0598 16.7319 8.69163 15.6078 7.73146 14.5406C6.65128 13.34 5.57109 12.1394 4.49091 10.9388C6.48625 8.06821 9.07391 6.91329 11.2614 4.65273C12.3371 3.4033 11.7526 0.638989 10.7047 1.19249Z" fill="#231F20"/>
</svg>
