<svg width="33" height="23" viewBox="0 0 33 23" fill="none" xmlns="http://www.w3.org/2000/svg">
<path d="M27.3737 13.848C28.5776 13.6665 28.7699 10.3108 27.582 10.3778C19.2143 10.7232 10.8866 11.774 2.61106 10.9658C1.86311 10.8612 1.28694 12.9968 2.29087 13.2539C10.2383 15.4159 19.0339 15.4803 27.3737 13.848Z" fill="#231F20"/>
<path d="M22.5851 21.8093C25.4251 20.3405 29.2693 17.1458 31.1176 12.8554C31.4336 12.0832 31.5937 10.9391 31.1138 10.4054C29.8979 9.18548 28.6661 8.07996 27.4503 6.86003C26.2184 5.75451 24.6986 4.72532 23.5988 3.1717C23.2509 2.18988 21.9548 3.52485 22.4907 4.64962C23.2345 6.27007 24.6024 7.39462 25.5622 8.46209C26.6421 9.66299 27.7219 10.8639 28.8017 12.0648C26.8056 14.9348 24.2176 16.089 22.0295 18.3489C20.9534 19.598 21.5371 22.3625 22.5851 21.8093Z" fill="#231F20"/>
</svg>
