<svg width="28" height="26" viewBox="0 0 28 26" fill="none" xmlns="http://www.w3.org/2000/svg">
<path d="M25.3957 8.69274C25.1406 9.68933 24.7562 10.6385 24.2803 11.5984C23.8349 12.5547 23.2908 13.4601 22.7467 14.3655C22.2027 15.271 21.594 16.1527 20.9853 17.0344L20.5041 17.683L20.1576 18.1599L20.0301 18.3931L19.4717 19.1754C19.4717 19.1754 18.8666 20.0879 18.2921 20.9969C17.7175 21.9058 17.1393 22.784 17.1932 22.7154C17.0388 22.9828 16.8843 23.2503 16.7909 23.5107C16.7604 23.5142 16.7568 23.4835 16.7263 23.487C16.7318 23.2681 16.6421 23.0289 16.5632 22.8822C16.5256 22.8242 16.5256 22.8242 16.4915 22.7969C15.7397 22.4477 14.9807 22.0369 14.2523 21.6225C13.7894 21.3644 13.3265 21.1063 12.8905 20.8139C12.4546 20.5215 12.0222 20.2598 11.5826 19.9367C10.7071 19.3211 9.80467 18.7398 8.92916 18.1242C8.05364 17.5086 7.20863 16.8894 6.42106 16.2324C5.6335 15.5754 4.86928 14.8533 4.19301 14.0898C3.51674 13.3262 2.95535 12.487 2.51242 11.6027C2.2757 11.1624 2.12693 10.6806 1.95122 10.2332L1.77382 9.50526L1.69134 9.3277L1.66987 9.14305C1.62505 9.0235 1.61432 8.93117 1.60001 8.80808C1.58042 8.37368 1.58777 7.90496 1.69022 7.45638C1.79267 7.0078 1.95614 6.55212 2.18778 6.1509C2.61698 5.32123 3.27405 4.58983 4.04769 4.06321C4.13206 3.99102 4.25051 3.94606 4.33488 3.87387C4.45334 3.8289 4.53771 3.75671 4.62566 3.7153C4.83206 3.62892 5.03489 3.51177 5.27538 3.45261C5.39384 3.40765 5.48178 3.36624 5.60382 3.35205L5.93583 3.28226C5.99685 3.27516 6.05787 3.26807 6.11889 3.26097L6.30194 3.23969L6.66804 3.19713C7.62096 3.14872 8.54149 3.35361 9.39196 3.75378C10.2155 4.18828 10.9959 4.78374 11.5807 5.55791C11.7277 5.75915 11.8712 5.92961 12.0219 6.16162C12.0972 6.27763 12.1313 6.30485 12.2891 6.59841C12.4129 6.86475 12.5366 7.13108 12.6603 7.39741L12.8324 7.81407C12.8808 7.9644 12.9562 8.0804 13.0046 8.23073C13.0081 8.26151 13.0117 8.29228 13.0422 8.28873L13.0727 8.28519L13.1032 8.28164L13.1948 8.271L13.3473 8.25326L13.7439 8.20715L14.0185 8.17523L14.2626 8.14685L14.4761 8.12203L14.5677 8.11138L14.5641 8.08061L14.5569 8.01906L14.5731 7.89241C14.5822 7.70422 14.6289 7.57402 14.6415 7.4166L14.7134 6.97157C14.7692 6.65318 14.8321 6.39634 14.895 6.1395L14.9615 5.91343C14.9848 5.84834 15.0082 5.78324 15.0351 5.74892C15.0854 5.6495 15.1321 5.5193 15.1824 5.41989C15.5739 4.53221 16.1251 3.68835 16.7893 3.0185C17.4841 2.34511 18.2882 1.81494 19.182 1.52388C20.0758 1.23282 21.0018 1.21874 21.8649 1.46149C22.3781 1.62016 22.8374 1.84748 23.3075 2.16712C23.5425 2.32694 23.7775 2.48676 23.9551 2.68445L24.2655 2.96027C24.3713 3.07273 24.443 3.15796 24.5184 3.27397C25.1265 3.98304 25.5084 4.87436 25.6498 5.82484C25.7805 6.68299 25.6509 7.69616 25.3957 8.69274Z" fill="#FFA843"/>
</svg>
