<svg width="313" height="68" viewBox="0 0 313 68" fill="none" xmlns="http://www.w3.org/2000/svg">
<path d="M312.29 2.32899V2.18923C312.879 1.49044 312.585 0.232612 311.258 0.232612C288.7 -0.605939 88.2767 1.07116 65.7191 1.35068C54.3667 1.49044 43.0142 1.6302 31.8091 1.76996C21.931 1.90971 11.6105 1.21092 1.8798 2.32899C1.73236 2.18923 1.43749 2.18923 1.29006 2.46875C0.995186 2.46875 0.700316 2.46875 0.552881 2.60851C-0.184294 2.74827 -0.184294 4.00609 0.552881 4.00609C0.700316 4.00609 0.847753 4.00609 0.995188 4.00609C-0.626597 17.7024 -0.184294 52.7963 1.8798 66.3529C2.02723 67.0517 2.61697 67.1915 3.20671 67.1915C3.35415 67.471 3.50158 67.7505 3.94389 67.7505C25.9117 67.8903 48.0269 68.03 69.9948 67.8903C80.7575 67.8903 91.5203 67.7505 102.283 67.7505C112.456 67.7505 300.937 68.5891 311.11 67.1915C311.7 67.0517 311.995 66.4927 311.847 66.0734C311.847 65.9337 311.847 65.9336 311.995 65.7939C312.29 51.259 313.911 16.4446 312.29 2.32899ZM102.136 64.8156C91.3728 64.9553 80.6101 64.9553 69.8473 65.0951C48.027 65.3746 26.0591 65.6541 4.23876 66.0734V65.9337C3.79645 52.0976 3.20671 17.9819 2.17467 4.00609C11.9054 5.26392 22.0784 4.42537 31.8091 4.42537C43.1616 4.42537 54.5141 4.28561 65.7191 4.14585C87.9818 3.86633 288.405 4.42537 310.668 2.74827C308.456 16.4446 309.194 50.9795 309.046 64.8156C299.463 63.8373 111.719 64.6758 102.136 64.8156Z" fill="black"/>
</svg>
