<svg width="36" height="35" viewBox="0 0 36 35" fill="none" xmlns="http://www.w3.org/2000/svg">
<path d="M5.21936 5.08878C2.61977 8.79763 1.73481 13.6617 2.06667 18.3434C2.28791 21.809 3.17288 25.3354 5.16405 28.0107C7.5424 31.2331 11.4141 32.9355 15.2306 32.9963C20.4297 33.1179 25.5736 30.1995 28.5051 25.457C31.3812 20.7146 31.8237 14.2697 29.556 9.16244C25.2971 -0.261686 11.4694 -3.72733 5.21936 5.08878Z" fill="#FFA843"/>
<path d="M18.3008 1.25126C11.8432 0.0473599 4.96215 4.1825 2.42145 10.045C-0.383898 16.5356 0.939382 25.8527 6.60302 30.5113C12.5313 35.3269 22.5882 35.0128 28.5165 30.4589C34.1272 26.1668 36.3503 18.891 34.1802 12.1911C31.7983 4.96765 23.8056 -0.580762 16.0248 1.40829C15.7072 1.46063 15.813 1.93173 16.0777 1.93173C24.335 2.03641 32.0629 6.22389 33.545 14.8606C34.9741 23.2879 28.6753 31.3488 20.2063 32.3956C15.6013 32.9714 9.77889 31.9769 6.49715 28.4699C3.63887 25.3816 2.36852 20.9324 2.42145 16.8496C2.47439 12.7668 3.90353 8.63169 6.97353 5.7528C10.1494 2.82157 14.0663 1.87938 18.3008 1.67001C18.5125 1.61766 18.5655 1.25126 18.3008 1.25126Z" fill="black" stroke="black"/>
</svg>
