<svg width="157" height="48" viewBox="0 0 157 48" fill="none" xmlns="http://www.w3.org/2000/svg">
<path d="M156.177 2.32899V2.18923C156.86 1.49044 156.518 0.232612 154.98 0.232612C128.83 -0.605939 102.337 1.07116 76.1868 1.35068C63.0261 1.49044 49.8654 1.6302 36.8756 1.76996C25.4241 1.90971 13.4598 1.21092 2.17921 2.32899C2.00829 2.18923 1.66645 2.18923 1.49553 2.46875C1.1537 2.46875 0.811862 2.46875 0.640943 2.60851C-0.213648 2.74827 -0.213648 4.00609 0.640943 4.00609C0.811862 4.00609 0.982782 4.00609 1.1537 4.00609C-0.7264 17.7024 -0.213648 32.7963 2.17921 46.3529C2.35012 47.0517 3.0338 47.1915 3.71747 47.1915C3.88839 47.471 4.05931 47.7505 4.57206 47.7505C30.0389 47.8903 55.6766 48.03 81.1434 47.8903C93.6205 47.8903 106.097 47.7505 118.575 47.7505C130.368 47.7505 143.016 48.5891 154.809 47.1915C155.493 47.0517 155.835 46.4927 155.664 46.0734C155.664 45.9337 155.664 45.9337 155.835 45.7939C156.177 31.259 158.057 16.4446 156.177 2.32899ZM118.404 44.8156C105.927 44.9553 93.4495 44.9553 80.9725 45.0951C55.6766 45.3746 30.2098 45.6541 4.9139 46.0734V45.9337C4.40115 32.0976 3.71747 17.9819 2.52104 4.00609C13.8016 5.26392 25.595 4.42537 36.8756 4.42537C50.0363 4.42537 63.197 4.28561 76.1868 4.14585C101.995 3.86633 128.488 4.42537 154.296 2.74827C151.733 16.4446 152.587 30.9795 152.416 44.8156C141.307 43.8373 129.513 44.6758 118.404 44.8156Z" fill="black"/>
</svg>
